<?xml version="1.0" encoding="utf-8"?>
<!-- Generator: Adobe Illustrator 24.0.1, SVG Export Plug-In . SVG Version: 6.00 Build 0)  -->
<svg version="1.1" id="图层_1" xmlns="http://www.w3.org/2000/svg" xmlns:xlink="http://www.w3.org/1999/xlink" x="0px" y="0px"
	 viewBox="0 0 512 512" style="enable-background:new 0 0 512 512;" xml:space="preserve">
<style type="text/css">
	.st0{fill:#D8DAE3;}
</style>
<path class="st0" d="M449.2,304.6c-0.2-1.2-0.4-2.4-0.8-3.6l-51.6-194.5c-5-18.6-24.1-29.7-42.7-24.7l0,0
	c-10.3,2.7-18.2,9.8-22.5,18.7c-19.9-11-42.2-16.8-65.5-15.6c-67.1,3.6-124,51.4-143.2,119.3l-18.7-70.6
	c-5-18.6-24.1-29.7-42.7-24.7h0c-18.6,5-29.7,24.1-24.7,42.7l51.6,194.5c0.1,0.4,0.2,0.8,0.4,1.2c-3.3,6.3-5.2,13.5-5.2,21.2
	c0,25.3,20.5,45.8,45.8,45.8c18.9,0,35.1-11.5,42.1-27.8c25.8,23.8,58.8,38.1,94.7,38.1c46.4,0,88-23.9,115.5-61.4
	c7.7,14.3,22.9,24,40.3,24c25.3,0,45.8-20.5,45.8-45.8C467.7,326.3,460.4,313,449.2,304.6z"/>
</svg>
