<svg id="图层_1" data-name="图层 1" xmlns="http://www.w3.org/2000/svg" viewBox="0 0 512 512"><defs><style>.cls-1{fill:#d8dae3;}</style></defs><title>画板 1</title><path class="cls-1" d="M435.28,289.81c0-22.27-8.25-37.12-11.38-56.91C412.6,133.17,352.31,66.37,255.22,66.37c-93,0-153.76,79.4-165.84,166.53-1.15,8.33-11.19,39.9-11.19,55-1,37.78,10.53,66.79,29.44,88.51.57,6.4.75,13.16-.13,18.36-2.32,13.8,2.33,30.23,17.69,35.52,12,4.66,34.94,12.37,51.23,7,11-3.63,15.74-9.33,17.7-12.67a265.51,265.51,0,0,0,61.1,7,281.31,281.31,0,0,0,57.48-5.65c4,5.52,12.66,13.66,28.91,13.77,24.61.17,48.14-6.52,54.46-20.86,4.45-11.85,3.28-18.67,2.45-25.82a71.47,71.47,0,0,1-.45-9.36C421.4,360.82,435.28,329.65,435.28,289.81Z"/></svg>