<?xml version="1.0" encoding="utf-8"?>
<!-- Generator: Adobe Illustrator 24.1.2, SVG Export Plug-In . SVG Version: 6.00 Build 0)  -->
<svg version="1.1" id="Layer_1" xmlns="http://www.w3.org/2000/svg" xmlns:xlink="http://www.w3.org/1999/xlink" x="0px" y="0px"
	 viewBox="0 0 512 512" style="enable-background:new 0 0 512 512;" xml:space="preserve">
<style type="text/css">
	.st0{fill:#D8DAE3;}
</style>
<path class="st0" d="M271.72,437.61c-25.25,0-53.65-1.61-85.76-4.84c-79.99-8.04-94.41-37.15-100.57-49.57l-0.42-0.85
	c-3.16-6.32-7.34-17.09-7.23-37.67c0.13-24.47,6.42-56.57,18.69-95.39c27.84-88.1,60.91-116.19,85.06-136.71l1.73-1.47
	c12.19-10.38,54.03-43.24,80.61-30.25c21.25,10.38,38.7,44.04,36.38,56.96c-1.37,7.64-6.54,15.85-16.86,20.16
	c2.05,2.86,3.96,7.54,2.83,14.56c-1.7,10.56-13.69,11.85-18.2,12.34c-9.01,0.97-22.02,0.43-39.41-0.43
	c-6.19-0.31-11.99-1.42-17.29-3.31c-15.06,21.85-16.24,45.32-13.13,77.99c1.59,16.74-0.13,28.8-2.54,37.03l7.45-3.87
	c14.38-22.87,38.82-39.07,68.99-45.7c30.21-6.63,62.33-2.88,90.44,10.58c33.17,15.88,57.08,44.56,63.96,76.73
	c5.21,24.37-0.32,47.71-15.59,65.72c-16.87,19.91-49.64,32.13-97.39,36.31C300.58,437.04,286.71,437.61,271.72,437.61z"/>
</svg>
