<?xml version="1.0" encoding="utf-8"?>
<!-- Generator: Adobe Illustrator 24.1.2, SVG Export Plug-In . SVG Version: 6.00 Build 0)  -->
<svg version="1.1" id="图层_1" xmlns="http://www.w3.org/2000/svg" xmlns:xlink="http://www.w3.org/1999/xlink" x="0px" y="0px"
	 viewBox="0 0 512 512" style="enable-background:new 0 0 512 512;" xml:space="preserve">
<style type="text/css">
	.st0{fill:#D8DAE3;}
</style>
<path class="st0" d="M253.7,75.9c85.8-0.1,159.1,62,173.1,146.8c2.8,17.2,2.9,34.4,0.8,51.8c-1.1,9.6-0.7,19.5-4.8,28.4
	c-7.2,15.9-13.9,32.1-23.9,46.6c-4.4,6.4-4.3,6.4,1,11.8c13.5,13.7,18.3,30.1,12.8,48.6c-5.5,18.5-18.4,29.8-37.2,33.8
	c-20.8,4.5-43.2-6.6-52.5-26c-1.7-3.5-3.1-4.1-6.8-2.8c-62.6,22-120.8,13.5-172.8-27.7c-39.6-31.3-60.9-73.5-64.5-124
	c-3.4-46.3,10-87.7,39.4-123.5c30-36.5,69.1-57.3,116.1-63c3.3-0.4,6.6-0.7,9.9-0.9C247.4,75.8,250.6,75.9,253.7,75.9z"/>
</svg>
