<svg id="图层_1" data-name="图层 1" xmlns="http://www.w3.org/2000/svg" viewBox="0 0 512 512"><defs><style>.cls-1{fill:#d8dae3;stroke:#d8dae3;stroke-miterlimit:10;stroke-width:10px;}</style></defs><title>bai-1</title><path class="cls-1" d="M465.57,204c-6.45-19.52-13.58-30.16-20-36.11-3-20.4-22.26-40.76-22.82-58.73-.76-25-29.23-8.49-33.86-30.41-4.23-20-20.48-19.59-31.31-27.27-18.18-12.89-36.11.19-36.11.19s-3.71,3.71-14.8,1.12c-6.88-5.4-13.32-10.61-15.79-13.6-4.22-5.1-4.88-5.77-17.3-8.87s-39,4.21-51.21,2.44-21.28-3.11-30.81,2.66-28.16,16.85-37.47,25.71-16,10.42-23.94,23.73c-.7,1.15-1.31,2.28-1.85,3.36-6.95,4.43-11.41,11.93-11.41,11.93s-37.26-3.46-38.54,40.72C28.19,160,34,226.44,43.93,244c3.27,5.73,3.45,15.53,7.38,20.83,4.14,5.57,7.87,15.38,1.18,29.87-1.32,2.88-1,6.46.51,10.36-.57,4.31-.21,9.84,1.79,17.28,7.54,28,16.85,30.7,20.4,52.86s-5.76,28.38,30.15,48.78,66.51,45.22,85.57,30.15a49.88,49.88,0,0,0,7.71-7.31c35.51,38.43,50.6,14.42,89.24,24.2,39.35,10,63.22-9.62,70.51-11.73s11.57-11.46,22.78-15.86,22.67-20.69,22.67-20.69,6.05-12.07,8.93-14.59c4.7-3.86,9-4.7,10.82-6.38s2.52-13.44,1.93-23.56c-.44-7.5-3.69-8.56-6.33-10.18,4.47-4.09,8.09-7.35,10.47-8,5.44-1.38.17-2.21,15.38-9.54s10.24-48.6,19.77-57.23S478.9,264.5,478.9,264.5,480.48,249.06,465.57,204Z"/></svg>