<?xml version="1.0" encoding="utf-8"?>
<!-- Generator: Adobe Illustrator 24.0.0, SVG Export Plug-In . SVG Version: 6.00 Build 0)  -->
<svg version="1.1" xmlns="http://www.w3.org/2000/svg" xmlns:xlink="http://www.w3.org/1999/xlink" x="0px" y="0px"
	 viewBox="0 0 512 512" style="enable-background:new 0 0 512 512;" xml:space="preserve">
<style type="text/css">
	.st0{fill:#D8DAE3;}
</style>
<g id="图层_1">
	<title>正常模式</title>
</g>
<g id="图层_2">
	<path class="st0" d="M427.6,254.2c0-96.6-78.4-175-175-175c-87.9,0-160.6,64.8-173.1,149.2c-7.5,0-13.8,0.3-18.3,0.7
		c-4.9,0.4-8.7,4.1-9.4,9c-7.3,53.1,17.1,80.8,43.1,92.1c18.5,38.3,50.5,68.9,89.9,85.5c0,0,0,0,0,0c-6.4,10-8.9,22-6.9,33.8
		c2.1,12.6,9.1,23.7,19.5,31.1c8.2,5.8,17.8,8.9,27.7,8.9c2.7,0,5.4-0.2,8.1-0.7c11.9-2,22.5-8.4,29.9-17.9
		c6.9-8.9,10.4-19.9,10-31.1l11-13.3c0,0,0,0,0,0C365.7,411.5,427.6,340.1,427.6,254.2z"/>
</g>
</svg>
