<svg id="图层_1" data-name="图层 1" xmlns="http://www.w3.org/2000/svg" viewBox="0 0 512 512"><defs><style>.cls-1{fill:#d8dae3;}</style></defs><title>正常_画板 1-01</title><path class="cls-1" d="M469.31,271.33s29.26-11.75,23.28-27-46.78,1.55-46.78,1.55C446.69,35,325.65-2.57,277.1,8.15c-46.17,10.2-53.91,53.37-55.18,69.63A175.47,175.47,0,0,0,86.75,191.37a49.47,49.47,0,0,0-36.28,17.06C8.41,258,58.48,428,58.48,428s-22.1,4.5-22.88,11.85c-.76,7.15,24.46,12.58,24.46,12.58s-18.18,12.19-14.41,18.62,27.93-3.77,27.93-3.77-10,32.58-1.33,32.59c8.15,0,29.05-30.59,29.05-30.59s31.44,28.8,40.62,22.28c7.48-5.32-3.82-26.72-3.82-26.72,9.75,1.33,24.6-4.87,24.6-4.87,20.27,10.45,43.2,14.8,65.64,17.65,50,6.36,102.86,2,149.67-17.48a196.34,196.34,0,0,0,41.16-23c21-15.49,38.48-36.2,48.07-60.63q1.93-4.92,3.4-10c9.73-33.86-2.84-65.95-2.84-65.95,9.36.44,24.12.88,22.79-11.21S469.31,271.33,469.31,271.33Z"/></svg>